# xmcd CD database file
#
# Track frame offsets:
#	150
#	22419
#	36389
#	53052
#	66652
#	80244
#	96378
#	113165
#	128801
#	142649
#	156748
#	171394
#	188286
#	207032
#	221086
#	231958
#	249892
#	265195
#	280128
#	298430
#	312545
#
# Disc length: 4341 seconds
#
# Revision: 0
# Processed by: cddbd v1.5.2PL0 Copyright (c) Steve Scherf et al.
# Submitted via: CDex 1.70beta2
#
DISCID=4f10f315
DTITLE=Various Artist - OLON Country special 2010
DYEAR=2010
DGENRE=Country
TTITLE0=Martin van de Vrugt and Friends - Leave a light on
TTITLE1=Dolly, I bag your pardon - Restless heart
TTITLE2=Danny Vera - Dressed in black
TTITLE3=Will Stevens - Born a freighttrain
TTITLE4=The Leo Koster Band feat Charlie McCoy - Black label
TTITLE5=Dix - Wanda
TTITLE6=Francis Levoy - The flood
TTITLE7=Dick van Altena - One love ago
TTITLE8=Conny Lee - Cowboyboots or business suit
TTITLE9=Herman Brock jr and the Eurocasters - Coco loco
TTITLE10=Ben and Carmen Steneker - Blue ribbons
TTITLE11=Marloez - In the wings
TTITLE12=Bas Riedé - Sparkling wine
TTITLE13=Sandra van Reys - Love for a song
TTITLE14=Change of Key - Choose me or lose me
TTITLE15=Eddy Gee - Little girl
TTITLE16=Savannah - Side by side
TTITLE17=Savannah feat Joe Brozio and Brent Mason - All you can eat
TTITLE18=Woodwind - Here I am
TTITLE19=Texas Renegade - Silver lining
TTITLE20=The Dixie Aces - Sunset pictures
EXTD=YEAR: 2010
EXTT0=
EXTT1=
EXTT2=
EXTT3=
EXTT4=
EXTT5=
EXTT6=
EXTT7=
EXTT8=
EXTT9=
EXTT10=
EXTT11=
EXTT12=
EXTT13=
EXTT14=
EXTT15=
EXTT16=
EXTT17=
EXTT18=
EXTT19=
EXTT20=
PLAYORDER=
